# xmcd
#
# Track frame offsets:
# 150
# 24570
# 43263
# 55763
# 77516
# 90708
# 112023
# 130381
# 156619
# 178604
# 195581
# 211629
# 239521
# 255853
# 277426
# 301893
# 323153
#
# Disc length: 4622 seconds
#
#
# Revision: 3
# Processed by: cddbd v1.5PL3 Copyright (c) Steve Scherf et al.
# Submitted via: FreeRIP 2.70 
#
DISCID=ef120c11
DTITLE=Roberta Flack - Softly With These Songs The Best Of Roberta Flack
DYEAR=1900
DGENRE=
TTITLE0=The First Time Ever I Saw Your Face
TTITLE1=Will You Still Love Me Tomorrow
TTITLE2=Where Is The Love (With Donny Hathaway)
TTITLE3=Killing Me Softly With His Song
TTITLE4=Feel Like Makin' Love
TTITLE5=The Closer I Get To You
TTITLE6=More Than Everything
TTITLE7=Only Heaven Can Wait (For Love)
TTITLE8=Back Together Again (With Donny Hathaway)
TTITLE9=Making Love
TTITLE10=Tonight, I Celebrate My Love (Peabo Bryson)
TTITLE11=Oasis
TTITLE12=And So It Goes
TTITLE13=You Know What It's Like
TTITLE14=Set The Night To Music (With Maxi Priest)
TTITLE15=My Foolish Heart
TTITLE16=Uh-Uh-Ooh-Ooh Look Out (Here It Comes) (Steve Hurley's House Mix)
EXTD=Linda'sRip
EXTT0=
EXTT1=
EXTT2=
EXTT3=
EXTT4=
EXTT5=
EXTT6=
EXTT7=
EXTT8=
EXTT9=
EXTT10=
EXTT11=
EXTT12=
EXTT13=
EXTT14=
EXTT15=
EXTT16=
PLAYORDER=
